# xmcd
#
# Track frame offsets:
#	150
#	19617
#	35179
#	55696
#	75524
#	93900
#	110362
#	120031
#	137531
#	163630
#	177584
#
# Disc length: 2614 seconds
#
# Revision: 0
# Processed by: cddbd v1.5.2PL0 Copyright (c) Steve Scherf et al.
# Submitted via: dBpowerAMP V4.0
#
DISCID=7d0a340b
DTITLE=Holly Cole - Holly Cole
DYEAR=2007
DGENRE=Blues
TTITLE0=The House Is Haunted By The Echo Of Your Last Goodbye
TTITLE1=Charade
TTITLE2=I Will Wait For You
TTITLE3=Waters Of March
TTITLE4=Alley Cat Song
TTITLE5=Larger Than Life
TTITLE6=Be Careful,It's My Heart
TTITLE7=It's Alright With Me
TTITLE8=You're My Thrill
TTITLE9=Life Is Just A Bowl Of Cherries
TTITLE10=Reaching For The Moon
EXTD=
EXTT0=
EXTT1=
EXTT2=
EXTT3=
EXTT4=
EXTT5=
EXTT6=
EXTT7=
EXTT8=
EXTT9=
EXTT10=
PLAYORDER=
